<mxfile host="app.diagrams.net" modified="2023-11-24T23:17:11.722Z" agent="Mozilla/5.0 (Windows NT 10.0; Win64; x64) AppleWebKit/537.36 (KHTML, like Gecko) Chrome/119.0.0.0 Safari/537.36 Edg/119.0.0.0" etag="3hFIg1umZmc3esx9bjb1" version="22.1.4" type="device">
  <diagram name="Page-1" id="mUyAikBEkfKeO0XjISf7">
    <mxGraphModel dx="1106" dy="623" grid="1" gridSize="10" guides="1" tooltips="1" connect="1" arrows="1" fold="1" page="1" pageScale="1" pageWidth="850" pageHeight="1100" math="0" shadow="0">
      <root>
        <mxCell id="0" />
        <mxCell id="1" parent="0" />
        <mxCell id="HVUczFYNgCfFE6jhYIkl-3" value="" style="sketch=0;html=1;aspect=fixed;strokeColor=none;shadow=0;fillColor=#3B8DF1;verticalAlign=top;labelPosition=center;verticalLabelPosition=bottom;shape=mxgraph.gcp2.phone_android" parent="1" vertex="1">
          <mxGeometry x="274" y="50" width="302.4" height="540" as="geometry" />
        </mxCell>
        <mxCell id="GwhOQZ08h-0G7rUX-uAW-1" value="" style="rounded=0;whiteSpace=wrap;html=1;" parent="1" vertex="1">
          <mxGeometry x="310.2" y="290" width="230" height="130" as="geometry" />
        </mxCell>
        <mxCell id="GwhOQZ08h-0G7rUX-uAW-5" value="" style="endArrow=none;html=1;rounded=0;entryX=1;entryY=0;entryDx=0;entryDy=0;exitX=0;exitY=1;exitDx=0;exitDy=0;" parent="1" source="GwhOQZ08h-0G7rUX-uAW-1" target="GwhOQZ08h-0G7rUX-uAW-1" edge="1">
          <mxGeometry width="50" height="50" relative="1" as="geometry">
            <mxPoint x="400" y="350" as="sourcePoint" />
            <mxPoint x="450" y="300" as="targetPoint" />
          </mxGeometry>
        </mxCell>
        <mxCell id="GwhOQZ08h-0G7rUX-uAW-6" value="" style="endArrow=none;html=1;rounded=0;entryX=0;entryY=0;entryDx=0;entryDy=0;exitX=1;exitY=1;exitDx=0;exitDy=0;" parent="1" source="GwhOQZ08h-0G7rUX-uAW-1" target="GwhOQZ08h-0G7rUX-uAW-1" edge="1">
          <mxGeometry width="50" height="50" relative="1" as="geometry">
            <mxPoint x="400" y="350" as="sourcePoint" />
            <mxPoint x="450" y="300" as="targetPoint" />
          </mxGeometry>
        </mxCell>
        <mxCell id="zu3UjDhR047ESKHf1mxj-1" value="" style="rounded=0;whiteSpace=wrap;html=1;" parent="1" vertex="1">
          <mxGeometry x="310.2" y="250" width="59.8" height="30" as="geometry" />
        </mxCell>
      </root>
    </mxGraphModel>
  </diagram>
</mxfile>
